<svg fill="none" height="71" viewBox="0 0 230 71" width="230" xmlns="http://www.w3.org/2000/svg" xmlns:xlink="http://www.w3.org/1999/xlink">
                        <clipPath id="a">
                            <path d="m0 .849976h230v69.3h-230z" />
                        </clipPath>
                        <g clip-path="url(#a)" fill="#000">
                            <path
                                d="m53.4459 1.76391c-.5976.15234-3.6677.15234-6.9136.15234h-9.6556c-1.9803 0-3.6794 0-6.0699-.16405-.1222.09264-.2201.21352-.2854.35229s-.0961.2913-.0895.44453c0 .17577 0 .58589.246.76166l.8672.10547c2.8943.35153 2.9881.94915 2.9881 6.31597v18.51438c0 5.4371-.2813 6.023-3.035 6.2691l-1.7577.1523c-.0978.1311-.1671.2811-.2034.4406-.0363.1594-.0389.3247-.0075.4851.0067.125.0431.2466.1063.3546.0632.1081.1513.1994.2569.2665l7.0308-.1523h4.6169c4.5466 0 9.1751 0 13.7803.1523h.1055v-.0937c.9852-2.323 1.7693-4.7262 2.3436-7.1832-.0641-.1339-.1574-.2518-.273-.3451-.1155-.0933-.2505-.1595-.395-.1939-.1424-.0442-.2929-.0567-.4407-.0364-.1478.0202-.2894.0727-.4147.1536-1.2538 2.4959-2.6248 4.3825-3.5857 4.9098-.9608.5273-2.7185.75-6.5034.75-4.5935 0-5.5543-.5859-6.1051-1.1718-.7851-.832-.9374-2.5545-.9374-5.2379v-7.1363c0-1.1718 0-1.1718 1.535-1.1718h2.9881c1.3102-.064 2.6234.0225 3.9138.2578.4038.1167.7619.3546 1.026.6816.2641.3269.4214.7271.4505 1.1464l.4804 2.0507c.124.1085.2695.1896.427.2381.1575.0484.3234.0631.487.0431.1335.0021.2654-.0289.384-.0903.1186-.0613.2202-.1511.2956-.2612l-.082-1.9452-.1523-3.1522.1172-3.1638.082-2.0741c-.0755-.1101-.177-.1999-.2956-.2612-.1186-.0614-.2505-.0924-.3841-.0903-.1635-.02-.3295-.0053-.4869.0431-.1575.0485-.303.1296-.4271.2381l-.4218 2.1561c-.2578 1.3007-.6211 1.4999-1.1718 1.6757-1.426.2574-2.8762.3557-4.3239.2929h-2.9881c-1.5351 0-1.535 0-1.535-1.2772v-10.24152c0-1.89831 0-1.89831 1.3827-1.89831h3.7028c1.6584-.06954 3.3194.03256 4.9567.30467 2.4842.62105 2.9881 2.23813 3.656 4.47626l.0938.30467c.095.10854.2152.19203.3501.24312.1348.05109.2802.0682.4233.04982.1514.00246.3015-.02887.4394-.09171.1378-.06283.2599-.1556.3574-.27154v-.72652c-.1233-2.09574-.3777-4.18171-.7617-6.24566v-.14062z" />
                            <path
                                d="m98.0194.978859h-.0586v.105461c-.4065 2.48025-1.006 4.925-1.7928 7.312v.07031c.082.1394.1921.2603.3232.35509.131.09478.2803.1614.4384.19565.1362.03704.2788.0447.4182.02248.1394-.02223.2724-.07382.3904-.15137.4399-1.27647 1.184-2.42668 2.1678-3.35134 1.172-1.08977 3.82-1.2421 6.222-1.2421h2.848c1.382 0 1.382 0 1.382 1.48818v22.51018c0 5.4371-.281 6.023-3.035 6.2691l-1.863.1523c-.124.0953-.221.2208-.282.3644-.062.1436-.086.3005-.069.4559-.004.145.026.2889.09.4194.063.1306.157.244.273.3306l7.183-.1524 6.761.1524c.119-.0982.215-.2218.28-.3617s.097-.2927.095-.4469c.019-.1382.006-.279-.039-.4111-.045-.1322-.119-.2522-.218-.3506l-1.688-.1523c-2.871-.2929-3.011-.9023-3.011-6.2691v-22.56877c0-.7148 0-1.1718.152-1.26554s.551-.16405 1.172-.16405h3c2.812 0 3.445.42185 4.593 1.25382.539.41013.984 1.57021 1.172 3.51539v-.01172c.122.11121.267.19326.426.23995.158.04669.325.0568.488.02956.139-.00421.275-.04279.396-.11231.12-.06951.222-.1678.295-.2861-.072-2.50292.184-5.00449.762-7.4409v-.05859c-.164-.31638-.856-.33982-1.172-.22264-.703 1.2421-1.066 1.17179-3.867 1.17179h-19.006c-2.25 0-3.7267.16406-4.0079-1.30069v-.04687c-.1845-.104911-.3916-.163933-.6036-.17209-.2121-.008158-.4231.034788-.6151.125219z" />
                            <path
                                d="m133.117.978855v.105465c-.434 2.48229-1.061 4.92701-1.875 7.312v.07031c.082.1394.192.2603.323.35508.131.09479.281.16141.439.19566.138.03727.282.04505.424.02285.141-.02221.276-.07391.396-.15175.448-1.27821 1.2-2.42835 2.191-3.35133 1.172-1.08977 2.531-1.2421 4.934-1.2421h1.546c1.383 0 1.383 0 1.383 1.48818v22.51018c0 5.4371-.281 6.023-3.047 6.2691l-1.886.1523c-.125.0943-.222.2199-.281.3641-.06.1442-.08.3016-.059.4562-.004.1437.026.2863.087.4165s.152.2443.265.3334l7.183-.1523 6.761.1523c.119-.0981.214-.2217.279-.3616s.098-.2927.096-.4469c0-.164 0-.5859-.258-.7617l-1.687-.1523c-2.848-.2929-2.941-.8906-2.941-6.2691v-22.56877c0-.7148 0-1.1718.152-1.26554.152-.09375.551-.16405 1.172-.16405h3.644c2.812 0 4.687.42184 5.859 1.25382.551.41013.984 1.54677 1.172 3.51538v-.01171c.122.11048.268.19206.426.2387.158.04665.325.05718.488.03081.148.03312.303.02556.447-.02188s.273-.133.373-.24763c-.072-2.50292.184-5.0045.762-7.44091v-.21092c-.164-.31638-.844-.33982-1.172-.22264-.715 1.2421-1.078 1.1718-3.867 1.1718h-18.503c-2.238 0-3.726.16405-3.996-1.3007v-.02343c-.186-.104097-.395-.162596-.609-.170741-.214-.008144-.427.034295-.621.123866z" />
                            <path
                                d="m181.698 1.7522-6.328.16405-6.714-.16405c-.246.11718-.352.50387-.375.79682-.023.13836-.011.28019.034.41301s.122.25255.224.34866l1.324.10546c3.07.24607 3.199.94915 3.199 6.31597v18.51438c0 5.3785-.106 5.9761-2.941 6.2691l-1.606.1523c-.098.1311-.167.2811-.203.4406-.037.1594-.039.3247-.008.4851.012.1237.051.2434.113.3506.063.1073.149.1996.251.2705l6.714-.1523h4.687c5.636 0 10.3.0586 12.796.1523h.106v-.082c.971-2.3122 1.728-4.7088 2.261-7.1597-.011-.1014-.051-.1974-.116-.2765-.064-.079-.15-.1376-.247-.1688-.182-.0908-.383-.138-.586-.138s-.404.0472-.586.138c-.937 2.3436-2.25 4.3591-3.328 5.0036-.797.4453-1.875.6445-6.199.6445-3.82 0-4.898-.5391-5.484-1.1718-.878-.9257-1.031-2.2381-1.031-5.4489v-17.7761c0-5.36683.106-6.0699 2.988-6.31598l1.278-.10546c.257-.17577.257-.5859.246-.76167.006-.15323-.025-.30576-.09-.44453s-.163-.25965-.285-.35229z" />
                            <path
                                d="m224.799 1.76391c-.598.15234-3.656.15234-6.902.15234h-9.667c-1.969 0-3.668 0-6.059-.16405-.246.11718-.351.50387-.363.79682s0 .58589.246.76166l.856.10547c2.906.35153 2.999.94915 2.999 6.31597v18.51438c0 5.4371-.281 6.023-3.046 6.2691l-1.746.1523c-.102.1288-.174.2788-.211.439-.036.1602-.036.3265 0 .4867.008.1234.044.2433.105.3508.06.1075.145.1999.246.2703l7.031-.1523h4.687c4.535 0 9.175 0 13.781.1523h.105v-.0937c.98-2.3249 1.764-4.7277 2.344-7.1832-.07-.1305-.165-.2455-.281-.338-.115-.0925-.248-.1606-.39-.2-.143-.0395-.292-.0495-.438-.0295-.147.0199-.288.0695-.415.1457-1.253 2.4959-2.624 4.3825-3.585 4.9098-1.172.5742-2.719.75-6.504.75-4.593 0-5.566-.5859-6.117-1.1718-.773-.832-.925-2.5545-.925-5.2379v-7.1363c0-1.1718 0-1.1718 1.535-1.1718h2.988c1.31-.0634 2.623.0231 3.914.2578.364.1395.681.3801.914.6935.232.3134.37.6867.398 1.0759l.469 2.0507c.124.1085.269.1896.427.2381.157.0484.323.0631.487.0431.133.0021.265-.0289.384-.0903.118-.0613.22-.1511.295-.2612l-.082-1.9452-.058-3.0936.129-3.1638.082-2.0741c-.078-.108-.18-.1961-.298-.2572s-.249-.0934-.382-.0943c-.163-.02-.329-.0053-.487.0431-.157.0485-.303.1296-.427.2381l-.41 2.1561c-.27 1.3007-.621 1.4999-1.172 1.6757-1.422.2583-2.868.3566-4.312.2929h-2.988c-1.535 0-1.535 0-1.535-1.2772v-10.24152c0-1.89831 0-1.89831 1.383-1.89831h3.702c1.655-.07016 3.312.03195 4.945.30467 2.473.62105 2.988 2.23813 3.703 4.47626l.094.30467c.092.10841.211.19199.344.24315s.276.06828.418.04979c.153.00098.304-.03095.443-.09363.14-.06268.264-.15463.365-.26962l-.07-.73823c-.111-2.09296-.366-4.17584-.762-6.23395v-.14062z" />
                            <path
                                d="m20.0006 49.0107-2.9412.0821-3.0701-.0821c-.1002.0172-.1921.0665-.2619.1405-.0697.074-.1135.1686-.1248.2697-.0229.1175-.0144.239.0247.3522.0391.1131.1074.214.198.2923l.5976.0937c.2482.0014.4928.0603.7144.1721s.4143.2735.5629.4724c.5038.8202.5038 3.7966.5038 5.402v3.5154c0 4.5231-1.6756 6.8198-4.9918 6.8198s-4.86297-2.3436-4.86297-6.9019v-6.3863c0-2.8591.18748-2.8826 1.41787-3.0701l.70308-.1171c.07236-.0845.1247-.1842.15311-.2918.02841-.1075.03215-.2201.01094-.3293-.01016-.0845-.03979-.1656-.08655-.2367-.04677-.0712-.10939-.1305-.18296-.1734l-3.74975.082-3.620848-.1055c-.073571.0429-.136199.1023-.182963.1734-.046764.0712-.076389.1522-.08655.2368-.026362.1103-.02849.2251-.006238.3364.022252.1112.068356.2163.135136.3081l.527303.0937c1.1718.1875 1.4296.2109 1.4296 3.0701v7.0308c0 2.8709.60933 4.8512 1.87487 6.0582 1.26554 1.2069 3.15213 1.828 5.85902 1.828 1.0244.0452 2.0472-.1208 3.0047-.4877s1.8294-.9268 2.5613-1.645c1.2772-1.3827 1.8749-3.4568 1.8749-6.5269v-3.2576c-.1178-1.8132.0083-3.634.3749-5.4137.1524-.3515.5391-.457 1.1132-.5859l.6562-.1406c.072-.0689.1273-.1532.1618-.2466.0345-.0933.0473-.1934.0374-.2924-.004-.0973-.0304-.1923-.0772-.2776-.0467-.0854-.1125-.1588-.1923-.2146z" />
                            <path
                                d="m33.0344 49.0107-1.8983.0821h-.3633c-.7499 0-2.0154 0-2.906-.0821-.1012.0196-.1934.0711-.263.1471s-.113.1723-.1237.2748c-.03.1143-.0308.2344-.0021.3491s.0858.2203.1661.3071l.457.0937c.4947.0969.9699.275 1.4062.5273.8671.7383.8671 1.1015.8554 3.117v6.7847c.1043 1.8117-.0097 3.6293-.3398 5.4137-.1641.375-.5976.4687-1.1015.5508l-.6679.1523c-.0729.0706-.1287.1569-.1632.2524-.0345.0954-.0468.1974-.036.2983.004.0989.0303.1956.077.2828.0467.0873.1125.1629.1925.2211l2.9295-.082 3.1638.082c.0975-.0249.1853-.0783.2521-.1535s.1096-.1686.1229-.2683c.0069-.0467.0069-.094 0-.1407.0028-.0998-.0167-.199-.0573-.2902-.0406-.0913-.1011-.1723-.1771-.2371l-.5741-.0703c-.7383-.1172-1.1132-.2929-1.3007-.621-.4805-.832-.4805-3.7966-.4805-5.3903v-5.4137c0-.7499 0-1.1718 0-1.4764.3399.3398.8437.914 1.6171 1.7811l1.3359 1.5233 6.5034 7.4175c1.9686 2.2498 2.7889 3.2107 3.2342 3.7966v.0586h.0703c.2048.0285.4134.0023.6048-.0759s.3587-.2056.485-.3694v-.0586c0-.2929-.0821-1.371-.0821-4.8746v-6.691c-.1154-1.8132.0107-3.6337.375-5.4137.1523-.3398.4922-.457 1.0781-.5507l.7382-.1992c.0728-.0707.1287-.157.1632-.2524s.0468-.1975.036-.2984c-.004-.0989-.0304-.1955-.077-.2828-.0467-.0873-.1125-.1628-.1925-.2211l-2.9529.0821-3.1873-.0821c-.098.0221-.1872.0729-.2561.146-.0689.073-.1144.1651-.1306.2642-.0058.0467-.0058.0939 0 .1406-.0014.1013.0188.2018.0592.2947s.1001.1762.1751.2443l.6797.082c.7265.1172 1.078.293 1.2772.6211.5039.8437.5039 3.6911.5039 5.402v5.4137c.0071.1288.0071.2578 0 .3866-.4336-.4335-1.6171-1.7576-2.5194-2.7654l-1.3124-1.453-2.7771-2.9998c-1.6639-1.752-3.1514-3.6635-4.4411-5.7067v-.1054z" />
                            <path
                                d="m65.1067 49.0107-3.6911.0821-3.7849-.0821c-.0749.0431-.1377.1043-.1828.1781-.045.0737-.0708.1575-.075.2438-.025.1109-.0231.2262.0054.3362.0286.1101.0829.2117.1586.2966l.6562.082c1.1718.1523 1.4296.1875 1.4296 3.0467v10.3352c0 2.8592-.2226 2.8826-1.4178 3.0349l-.668.0938c-.075.0876-.1289.1913-.1573.3031-.0285.1117-.0308.2286-.0067.3414.0042.0863.03.1701.075.2438.0451.0737.1079.1349.1828.178l3.7849-.082 3.7263.082c.075-.044.1386-.1052.1854-.1785.0469-.0733.0757-.1567.0841-.2433.0185-.113.0134-.2285-.0148-.3394s-.079-.2147-.1492-.3051l-.668-.0938c-1.1718-.1523-1.4178-.1757-1.4178-3.0349v-10.2767c0-2.8591.2109-2.8943 1.4178-3.0466l.668-.0821c.0705-.0878.1216-.1897.1499-.2987.0282-.1091.0331-.2229.0141-.334-.0084-.0866-.0372-.17-.0841-.2433-.0468-.0734-.1104-.1345-.1854-.1786h-.0703z" />
                            <path
                                d="m93.0518 49.0107-2.6834.0821-3.0233-.0821c-.0674.0501-.1239.1133-.1662.1858s-.0695.1528-.0798.2361v.1289c.0006.1793.0627.353.1757.4921l.8554.211c.3516.082.5273.1523.5859.2695.0065.0505.0065.1017 0 .1523-.0375.3074-.1204.6075-.246.8906-1.3007 3.3747-2.7186 6.6909-4.1013 9.8899l-.4101.9492-.1524-.3398-1.1718-2.8592-2.0038-4.945c-.5455-1.1729-.9961-2.3877-1.3475-3.6326 0-.082.0703-.1992.7148-.3515l.6913-.1641c.0914-.0568.1664-.1363.2177-.2308.0514-.0945.0773-.2007.0753-.3082.0006-.1014-.0237-.2014-.0707-.2913-.0469-.0899-.1152-.1669-.1988-.2243l-3.7146.0821-3.3631-.0821c-.0878.0178-.1687.0603-.233.1226-.0644.0623-.1096.1418-.1302.229-.029.12-.0292.2451-.0007.3653.0285.1201.0849.2318.1647.326l.7148.1406c1.0429.211 1.2656.5625 2.0272 2.3436l4.863 11.718c.4864 1.1834.9089 2.3921 1.2655 3.6208.1843.1094.3951.1661.6094.1641.1104.0071.2213-.0078.3259-.044.1046-.0363.201-.093.2834-.1669.4921-1.4531 1.7811-4.6872 2.906-7.2183l1.5468-3.4451.3867-.8671c1.0195-2.3436 1.7577-3.9372 2.4491-5.1208.1655-.2933.3984-.5431.6797-.7285.2812-.1854.6025-.3012.9373-.3378l.6914-.1406h.0703c.1219-.2086.1596-.4559.1055-.6914l-.2578-.4101z" />
                            <path
                                d="m113.394 49.0107c-.316 0-1.781.0821-3.726.0821h-5.308l-3.586-.0821c-.071.0467-.132.1088-.176.1818-.045.073-.073.155-.082.2401-.024.1109-.023.2262.006.3362.028.1101.083.2117.159.2966l.503.0585c1.172.1875 1.418.211 1.418 3.0701v10.3353c0 2.8592-.222 2.8826-1.418 3.0115l-1.089.1172c-.075.0876-.1293.1913-.1578.303-.0284.1118-.0307.2287-.0066.3415.0088.085.0365.1671.0814.2401.044.0729.105.135.176.1817l4.207-.082h3.164c3.293 0 5.66 0 6.867.082h.093v-.082c.554-1.307.948-2.6762 1.172-4.0779-.058-.0959-.137-.1783-.23-.2418-.092-.0635-.198-.1066-.308-.1266-.111-.0199-.225-.0162-.334.011-.109.0271-.211.0771-.3.1465-.96 2.2381-1.558 2.9647-4.956 2.9061-2.344 0-2.742-.2227-3.024-.5508-.404-.8575-.555-1.8132-.433-2.7537v-3.5154c0-.5976 0-.5976.504-.5976h1.336c2.437 0 2.753 0 2.929 1.0898l.199 1.1718c.215.1292.469.1751.715.1289l.481-.2461v-.8085l-.059-2.1093.035-2.1444v-.6093c-.05-.0662-.113-.1213-.186-.1616-.073-.0404-.153-.0652-.236-.0728-.123-.0201-.249-.015-.369.0153-.121.0302-.235.0848-.334.1605l-.199.996c-.176 1.0547-.492 1.0898-2.929 1.0898h-1.36c-.504 0-.504 0-.504-.5859v-4.6872c0-1.4764 0-1.4764 1.032-1.4764h1.816c.734-.0248 1.467.0541 2.179.2343.797.1992 1.172.7851 1.641 2.4256.108.0643.229.1057.353.1218.125.0162.252.0066.373-.028.082-.0097.16-.038.229-.0827.07-.0447.127-.1046.17-.1751l-.235-2.0624-.234-2.0272z" />
                            <path
                                d="m124.21 49.2568c-.07.0479-.128.1106-.17.1835-.043.0729-.069.1543-.076.2384-.016.1073-.007.2166.026.32.032.1034.087.1983.161.2776l.785.082c1.172.1289 1.172.2695 1.172 2.9881v10.1712c0 2.8592-.223 2.8826-1.43 3.0349l-.644.0938c-.08.0707-.141.1602-.178.2604-.037.1003-.048.2081-.033.3138.003.1017.031.2012.082.2892s.124.1618.211.2146l3.785-.082 3.726.082c.075-.044.139-.1052.186-.1785.046-.0733.075-.1567.084-.2433.018-.113.013-.2285-.015-.3394s-.079-.2147-.149-.3051l-.657-.0937c-1.171-.1524-1.418-.1758-1.418-3.035v-3.5154c0-.4453.305-.4453 1.02-.4453.393-.0435.79.0273 1.143.204s.648.4518.849.7921l.937 1.617 1.149 2.1796c1.816 2.7537 4.874 5.7886 7.452 5.7886.645.0244 1.291-.0307 1.922-.164.068-.1202.096-.2592.079-.3963-.017-.1372-.077-.2652-.173-.3654-.678-.082-1.315-.3681-1.828-.8202-2.686-2.7795-5.045-5.858-7.03-9.1752l-.094-.164c-.056-.065-.085-.1487-.082-.2344.969-.3142 1.819-.919 2.433-1.7323s.963-1.7958 1-2.8143c.054-.8859-.155-1.7681-.601-2.5354-.447-.7673-1.11-1.3855-1.906-1.7768-1.684-.742-3.519-1.0714-5.356-.9608-2.402 0-4.745.082-6.362.246zm5.425 8.2026v-5.8238c0-1.1718 0-1.1718 1.312-1.1718.508-.0015 1.011.1021 1.477.3044.465.2022.884.4987 1.23.8707s.61.8116.778 1.291c.167.4794.234.9882.195 1.4946 0 2.6013-1.172 3.82-3.82 3.82-1.219.0234-1.219.0234-1.219-.8203z" />
                            <path
                                d="m149.206 53.8854c0 2.1678 1.335 4.0192 3.995 5.5074l1.172.6679c1.898 1.0664 2.754 2.2616 2.754 3.8904.003.3997-.08.7955-.242 1.1609s-.4.6921-.698.9582c-.298.2662-.65.4656-1.031.5852-.382.1195-.784.1563-1.181.108-2.918 0-4.324-3.5154-4.57-4.2887-.086-.0696-.186-.1194-.294-.1457-.107-.0264-.219-.0286-.327-.0067-.097.0093-.191.0405-.274.0913-.083.0507-.154.1197-.207.2017-.097 1.4963.202 2.9919.867 4.3356 1.415.8405 3.044 1.2479 4.688 1.1718 4.019 0 6.608-2.1913 6.608-5.5777-.052-1.2076-.445-2.3756-1.133-3.369-.689-.9933-1.644-1.7714-2.757-2.2439l-1.722-.914c-1.653-.8789-2.555-2.039-2.555-3.2576-.007-.3751.066-.7473.213-1.0923.148-.345.366-.6549.642-.9094.275-.2545.602-.4479.957-.5674.356-.1195.732-.1625 1.106-.1261.876.0343 1.714.3702 2.372.9509.658.5808 1.095 1.3707 1.237 2.2364.102.0725.219.1225.342.1468.123.0242.25.0221.373-.0062.084-.0101.165-.0398.236-.0865.072-.0468.131-.1094.174-.183.017-1.2979-.185-2.5893-.598-3.82v-.0703l-1.007-.211c-.952-.238-1.926-.3677-2.907-.3867-4.277.0118-6.233 2.6014-6.233 5.2497z" />
                            <path
                                d="m177.385 49.0107-3.679.0821-3.797-.0821c-.072.0467-.132.1088-.177.1818-.044.073-.072.155-.081.2401-.022.111-.019.2256.01.3352.028.1096.081.2113.154.2976l.668.082c1.172.1523 1.418.1875 1.418 3.0467v10.3352c0 2.8592-.211 2.8826-1.418 3.0349l-.668.0938c-.073.0889-.125.1926-.153.304-.029.1114-.032.2276-.011.3405.009.085.037.1671.081.2401.045.0729.105.135.177.1817l3.797-.082 3.726.082c.075-.0431.138-.1043.183-.178s.071-.1575.075-.2438c.024-.1128.022-.2297-.007-.3414-.028-.1118-.082-.2155-.157-.3031l-.668-.0938c-1.172-.1523-1.418-.1757-1.418-3.0349v-10.2767c0-2.8591.223-2.8943 1.418-3.0466l.668-.0821c.075-.0848.13-.1864.158-.2965.029-.11.031-.2253.006-.3362-.004-.0863-.03-.1701-.075-.2439-.045-.0737-.108-.1349-.183-.178h-.082z" />
                            <path
                                d="m203.893 48.5421c-.293.539-.586.6327-1.98.6327h-11.331c-1.945 0-2.156 0-2.262-.5976-.042-.0764-.105-.1391-.182-.1806s-.164-.0602-.251-.0537c-.084-.0075-.169.0056-.246.0383-.078.0327-.146.0839-.2.1492-.222 1.0429-.644 2.7654-1.101 4.2301v.1055c.048.0912.116.1703.2.2312.083.0609.179.102.28.1203.112.0342.229.0435.345.0273.115-.0162.225-.0575.323-.121 1.055-2.2733 1.781-2.5194 4.23-2.5194h1.559c.586 0 .586 0 .586 1.0664v11.9171c0 2.8592-.211 2.8826-1.406 2.9764l-1.172.1523c-.077.0702-.136.1582-.17.2563-.035.0981-.045.2033-.029.3062-.001.1014.023.2014.07.2913s.116.1669.199.2243l4.347-.0821 4.113.0821c.076-.0441.139-.1052.186-.1786.047-.0733.076-.1567.084-.2433.019-.1137.013-.2303-.017-.3415-.03-.1113-.085-.2147-.159-.303l-1.054-.1171c-1.172-.1289-1.418-.1524-1.418-3.0116v-11.8585c0-1.0664 0-1.0664.597-1.0664h1.582c2.965 0 3.363.5156 3.703 2.5663.094.0671.201.1141.314.1383s.229.025.342.0023c.088-.0108.173-.0391.249-.0834.077-.0443.144-.1037.197-.1744-.028-1.4638.11-2.9261.41-4.3591v-.0703c-.059-.0725-.134-.1296-.22-.1663-.086-.0368-.179-.0521-.272-.0446z" />
                            <path
                                d="m219.126 49.0107c-.621 0-2.344.0821-3.516.0821l-3.515-.0821c-.087.0235-.165.0713-.225.1377-.06.0665-.1.1489-.115.2373-.036.1157-.045.2381-.027.3579s.063.2338.132.3335l.786.1757c1.171.2461 1.371.5274 1.968 1.6992l3.34 6.6206c.652.999.957 2.1851.867 3.3748v1.6405c0 2.8592-.211 2.8826-1.406 3.0115l-.949.1172c-.075.0875-.129.1913-.158.303-.028.1118-.03.2287-.006.3415.006.0857.032.1688.077.2422s.107.135.18.1796l4.067-.082 4.23.082c.071-.0467.132-.1088.176-.1817.045-.073.073-.1551.081-.2401.025-.1128.022-.2297-.006-.3415-.029-.1117-.082-.2155-.158-.303l-1.171-.1172c-1.278-.1289-1.477-.1523-1.477-3.0115v-1.664c-.107-1.3582.248-2.7128 1.008-3.8435l.34-.5976 2.343-4.0661c1.442-2.4491 1.746-2.9178 2.918-3.1287l.856-.1758c.074-.0883.128-.1916.158-.3029.031-.1113.036-.2278.017-.3416-.012-.084-.042-.1643-.088-.2353-.047-.0709-.109-.1306-.181-.1748l-2.684.082-2.953-.082c-.079.0446-.146.107-.197.1823-.051.0752-.084.1613-.095.2513-.006.0467-.006.0939 0 .1406-.004.1786.064.3511.187.4804l.879.211c.48.0585.515.1523.515.2577-.151.6306-.396 1.2349-.726 1.7929l-3.129 5.8941c-.843-1.5936-1.64-3.2927-2.484-5.109l-.598-1.289c-.224-.4319-.386-.8935-.48-1.371 0-.082 0-.1523.445-.2109l.879-.1406c.067-.0627.119-.1392.154-.2242.034-.085.05-.1764.045-.268.006-.0349.006-.0705 0-.1054-.003-.0943-.029-.1863-.076-.2681-.047-.0817-.113-.1507-.193-.2006z" />
                            <path
                                d="m14.8935 17.3137-4.3473-2.5779c-2.96468-1.8515-4.48802-3.9255-4.48802-6.18711 0-1.66395.60934-5.5426 6.25742-5.5426 4.9332 0 6.4331 3.03496 7.1831 5.69493.0914.10277.2062.18198.3347.23094s.2669.06621.4035.05029c.3449-.00864.6729-.15159.914-.39841.0027-1.85911-.2376-3.7106-.7148-5.50744-.1523-.5859-.2929-1.83972-1.1718-1.87487-.3247.0079-.6458.07131-.9491.18749-.4019.14312-.8277.2068-1.2539.18748-.4101 0-.8202-.15233-1.1718-.21092-.9141-.15833-1.8381-.2523-2.7654-.28123-6.67923 0-11.17892 3.62085-11.17892 9.01115 0 4.3473 3.21072 7.2768 5.85898 8.9759l5.13244 3.1873c3.8201 2.3436 4.3474 4.7809 4.3474 7.0308 0 2.8591-2.0272 5.7535-6.5738 5.7535-5.62461 0-8.06194-4.113-9.12828-7.5464-.06847-.1-.16164-.1806-.27046-.234s-.22959-.0777-.350589-.0707c-.181876-.0041-.362571.0303-.5302.101-.16763.0707-.318398.1761-.4423898.3092.0528509 1.053.1702508 2.1018.3515388 3.1404.160869 1.0648.391824 2.1178.69136 3.1521.22862.6993.55614 1.3622.97259 1.9686.37497.5156.87885.5156 1.47646.4922.59098-.0419 1.18484-.0144 1.76941.082 1.57405.3729 3.18677.5578 4.80436.5508 6.9722 0 11.718-3.8904 11.718-9.6674-.0586-4.0309-2.285-7.3002-6.8785-10.0071z" />
                            <path
                                d="m79.364 1.08431c-.6549.87926-1.5563 1.54408-2.5897 1.91003h-.1406v.14061c.1406.77339-.1524 1.72254-.8672 3.51539l-5.273 14.02636-3.5154 8.9643-1.0078 2.5076c-.1754.6598-.5537 1.2479-1.0815 1.681s-1.1783.6895-1.8597.7329l-1.7459.1523c-.0929.097-.1623.214-.2029.3419-.0407.128-.0514.2636-.0315.3964-.0003.1517.0308.3018.0913.4409.0605.1392.1491.2643.2602.3676h1.1718l3.8201-.1055h1.7108l3.6677.1172c.1302-.0668.2402-.1672.3184-.2908.0783-.1237.1221-.266.1269-.4123.0293-.1578.0153-.3207-.0404-.4712-.0557-.1506-.151-.2833-.276-.3842l-1.7342-.1523c-1.2539-.1055-1.3476-.4101-1.3476-.8671.2323-1.4454.6254-2.8603 1.1718-4.2185l1.7928-5.402c.3281-.9843.5508-1.1718 1.8046-1.1718h7.769c1.4882 0 1.6171.1407 1.9452 1.1718l2.2733 7.0308c.3361.8576.5568 1.756.6562 2.6717 0 .3867-.6211.6796-1.6523.7734l-1.535.1523c-.1067.104-.1893.2301-.2421.3695-.0527.1393-.0742.2885-.063.4371.0111.1486.0547.2929.1277.4228s.1735.2423.2946.3291h1.0546l4.8864-.1172c2.1678 0 3.9724 0 6.2105.1524h.0703c.1031-.1161.182-.2515.2323-.3984.0503-.1468.0709-.3022.0606-.457.0056-.1292-.0191-.2579-.072-.3759-.0529-.1179-.1325-.222-.2326-.3038l-1.4296-.1523c-2.1561-.2461-2.7889-1.0546-4.2302-5.3434l-7.3706-21.56105c-.6796-1.99205-1.3944-4.05441-1.9686-6.03474-.0633-.18928-.19-.35092-.3586-.45766-.1687-.10674-.369-.15203-.5671-.12824zm-2.7538 9.52669c.4922-1.33584.9258-2.34358 1.1718-2.8123.3047.66792.7148 1.89831 1.0898 3.0115l2.7772 8.3783c.1727.3648.2377.7714.1874 1.1718-.0937.1875-.5507.1992-1.1718.1992h-6.3276c-.3946.0379-.7926-.0019-1.1718-.1171-.1055-.1055.0937-.6211.1992-.9023z" />
                        </g>
                    </svg>